<svg width="1557" height="288" viewBox="0 0 1557 288" fill="none" xmlns="http://www.w3.org/2000/svg">
<path d="M5.76 124.52C5.76 108.36 9.04 93.72 15.6 80.6C22.32 67.48 31.92 57.16 44.4 49.64C57.04 41.96 72 38.12 89.28 38.12C105.76 38.12 119.68 41.48 131.04 48.2C142.56 54.76 151.2 63.08 156.96 73.16C162.88 83.08 166.24 93.16 167.04 103.4H134.64C133.84 97.48 131.68 91.72 128.16 86.12C124.64 80.52 119.6 75.96 113.04 72.44C106.64 68.76 98.88 66.92 89.76 66.92C79.2 66.92 70 69.48 62.16 74.6C54.48 79.72 48.56 86.68 44.4 95.48C40.4 104.12 38.4 113.8 38.4 124.52C38.4 135.24 40.4 145 44.4 153.8C48.56 162.44 54.48 169.32 62.16 174.44C70 179.56 79.2 182.12 89.76 182.12C98.88 182.12 106.64 180.36 113.04 176.84C119.6 173.16 124.64 168.52 128.16 162.92C131.68 157.32 133.84 151.56 134.64 145.64H167.04C166.24 155.88 162.88 166.04 156.96 176.12C151.2 186.04 142.56 194.36 131.04 201.08C119.68 207.64 105.76 210.92 89.28 210.92C72 210.92 57.04 207.16 44.4 199.64C31.92 191.96 22.32 181.56 15.6 168.44C9.04 155.32 5.76 140.68 5.76 124.52ZM217.374 107C220.254 100.44 223.214 95.32 226.254 91.64C229.294 87.96 233.694 85.16 239.454 83.24C245.214 81.32 253.054 80.36 262.974 80.36V111.56C261.054 111.4 258.414 111.32 255.054 111.32C240.814 111.32 230.894 114.68 225.294 121.4C219.694 127.96 216.894 138.84 216.894 154.04V209H186.174V82.28H216.894V89.24C216.894 94.2 215.694 99.08 213.294 103.88C212.654 105.16 212.334 106.2 212.334 107C212.334 108.28 213.054 109.08 214.494 109.4H214.734C215.374 109.4 215.934 109.16 216.414 108.68C216.894 108.04 217.214 107.48 217.374 107ZM389.734 143.96C389.734 146.52 389.494 149.64 389.014 153.32H296.854C297.974 162.92 301.494 170.44 307.414 175.88C313.334 181.32 321.094 184.04 330.694 184.04C343.654 184.04 352.214 177.64 356.374 164.84H387.574C384.694 178.76 378.454 189.96 368.854 198.44C359.414 206.76 346.614 210.92 330.454 210.92C317.174 210.92 305.734 208.12 296.134 202.52C286.534 196.92 279.254 189.24 274.294 179.48C269.334 169.56 266.854 158.28 266.854 145.64C266.854 132.52 269.414 121.08 274.534 111.32C279.654 101.4 286.934 93.8 296.374 88.52C305.974 83.08 317.174 80.36 329.974 80.36C340.374 80.36 350.054 82.6 359.014 87.08C368.134 91.4 375.494 98.36 381.094 107.96C386.854 117.4 389.734 129.4 389.734 143.96ZM359.014 132.2C358.374 124.2 355.654 117.72 350.854 112.76C346.054 107.8 339.414 105.32 330.934 105.32C312.694 105.32 301.734 114.28 298.054 132.2H359.014ZM401.151 174.2C401.151 161.08 405.311 151.4 413.631 145.16C422.111 138.76 433.311 135.16 447.231 134.36L459.471 133.88C470.191 133.56 477.871 132.84 482.511 131.72C487.151 130.6 489.471 127.96 489.471 123.8C489.471 118.36 487.711 113.96 484.191 110.6C480.671 107.08 473.951 105.32 464.031 105.32C454.111 105.32 447.071 107.08 442.911 110.6C438.751 113.96 436.191 118.6 435.231 124.52H404.991C407.071 109.48 413.711 98.36 424.911 91.16C436.111 83.96 449.471 80.36 464.991 80.36C481.951 80.36 495.391 84.52 505.311 92.84C515.231 101.16 520.191 116.52 520.191 138.92V209H489.471V200.12C489.471 195.64 490.671 191 493.071 186.2C493.711 184.6 494.031 183.4 494.031 182.6C494.031 181.64 493.631 181 492.831 180.68L491.871 180.44C490.911 180.44 490.191 180.92 489.711 181.88C489.231 182.68 488.991 183.16 488.991 183.32C481.471 201.72 466.911 210.92 445.311 210.92C437.471 210.92 430.111 209.32 423.231 206.12C416.511 202.92 411.151 198.52 407.151 192.92C403.151 187.32 401.151 181.08 401.151 174.2ZM489.471 143.72C486.271 147.24 482.031 149.72 476.751 151.16C471.631 152.44 463.551 153.64 452.511 154.76C445.631 155.56 440.431 157.4 436.911 160.28C433.551 163 431.871 167.08 431.871 172.52C431.871 177.16 433.631 180.92 437.151 183.8C440.831 186.68 445.551 188.12 451.311 188.12C453.391 188.12 454.991 188.04 456.111 187.88C465.551 186.6 473.391 182.52 479.631 175.64C486.031 168.76 489.311 158.12 489.471 143.72ZM618.053 109.16H583.493V167C583.493 172.12 583.653 175.64 583.973 177.56C584.453 179.48 585.493 180.76 587.093 181.4C588.853 181.88 592.053 182.12 596.693 182.12H618.053V209H590.213C581.413 209 574.293 207.88 568.853 205.64C563.413 203.24 559.333 199.24 556.613 193.64C554.053 188.04 552.773 180.2 552.773 170.12V109.16H529.733V82.28H552.773V47.72H583.493V82.28H618.053V109.16ZM639.221 66.92V36.2H669.941V66.92H639.221ZM639.221 82.28H669.941V209H639.221V82.28ZM679.642 82.28H712.283L740.363 174.92C741.483 178.6 742.043 183.24 742.043 188.84C742.043 191.24 743.003 192.44 744.922 192.44C746.843 192.44 747.803 191.24 747.803 188.84C747.803 183.24 748.363 178.6 749.483 174.92L777.563 82.28H810.203L767.003 209H722.843L679.642 82.28ZM933.249 143.96C933.249 146.52 933.009 149.64 932.529 153.32H840.369C841.489 162.92 845.009 170.44 850.929 175.88C856.849 181.32 864.609 184.04 874.209 184.04C887.169 184.04 895.729 177.64 899.889 164.84H931.089C928.209 178.76 921.969 189.96 912.369 198.44C902.929 206.76 890.129 210.92 873.969 210.92C860.689 210.92 849.249 208.12 839.649 202.52C830.049 196.92 822.769 189.24 817.809 179.48C812.849 169.56 810.369 158.28 810.369 145.64C810.369 132.52 812.929 121.08 818.049 111.32C823.169 101.4 830.449 93.8 839.889 88.52C849.489 83.08 860.689 80.36 873.489 80.36C883.889 80.36 893.569 82.6 902.529 87.08C911.649 91.4 919.009 98.36 924.609 107.96C930.369 117.4 933.249 129.4 933.249 143.96ZM902.529 132.2C901.889 124.2 899.169 117.72 894.369 112.76C889.569 107.8 882.929 105.32 874.449 105.32C856.209 105.32 845.249 114.28 841.569 132.2H902.529Z" fill="white"/>
<path d="M1302.85 211.025C1286.88 211.025 1275.63 203.15 1266.85 192.8C1263.93 189.425 1261.45 190.55 1259.65 195.95L1255.38 209H1249.75L1264.83 152.525H1269.78C1264.6 178.175 1277.43 202.475 1302.63 202.475C1325.58 202.475 1334.8 184.25 1334.8 167.825C1334.8 150.725 1325.13 136.325 1312.98 120.575L1304.65 109.325C1295.88 97.85 1287.78 86.15 1287.78 69.5C1287.78 47.225 1302.85 25.625 1333.23 25.625C1346.95 25.625 1355.95 30.575 1365.4 41.825C1367.43 44.075 1369.23 43.4 1369.9 41.6L1374.85 30.35H1380.03L1366.08 80.975H1361.13C1366.3 49.7 1354.38 33.5 1333.68 33.5C1311.63 33.5 1301.05 49.475 1301.05 66.8C1301.05 82.1 1308.93 92.225 1316.35 101.9L1324 112.025C1333.23 124.175 1348.3 142.85 1348.3 164.225C1348.3 187.4 1333.45 211.025 1302.85 211.025ZM1425.7 200.225C1434.25 200.225 1443.02 188.075 1451.35 171.2H1456.07C1446.62 191 1435.15 210.35 1419.85 210.35C1407.47 210.35 1402.75 196.4 1401.62 174.125C1401.17 167.6 1400.95 159.275 1401.4 151.85C1432.9 143.3 1447.07 118.775 1447.07 106.625C1447.07 101 1444.6 98.75 1441 98.75C1429.97 98.75 1399.15 125.3 1367.65 209H1355.05L1407.47 47.45C1410.85 37.1 1408.6 33.5 1391.95 33.5L1393.3 29C1413.55 29 1420.75 27.875 1425.02 22.7L1427.95 23.6L1384.3 157.7H1385.87C1409.95 105.275 1432.67 88.4 1446.85 88.4C1455.85 88.4 1460.57 94.7 1460.57 102.575C1460.57 117.2 1442.8 143.3 1413.77 151.4H1413.55C1413.55 157.7 1414 164.225 1414.67 172.1C1416.25 190.1 1418.5 200.225 1425.7 200.225ZM1443.67 260.525C1436.92 260.525 1433.77 257.375 1433.77 253.55C1433.77 247.925 1438.72 243.425 1444.8 243.425C1452 243.425 1454.25 247.925 1461 247.925C1470 247.925 1481.92 234.425 1492.5 218.9C1496.77 172.1 1497.45 136.1 1497.22 117.425C1497.22 101.225 1495.65 97.85 1491.82 97.85C1486.42 97.85 1479.22 110.45 1472.47 127.55H1467.97C1474.95 108.65 1484.62 88.4 1496.55 88.4C1506.22 88.4 1509.37 96.05 1509.6 116.525C1509.6 135.425 1508.47 168.275 1504.65 205.175C1532.1 169.625 1545.37 138.8 1545.37 117.875C1545.37 106.175 1539.52 100.325 1539.52 94.025C1539.52 90.875 1541.55 87.5 1545.82 87.5C1551.67 87.5 1555.05 94.025 1555.05 108.875C1555.05 132.95 1540.2 164.675 1516.57 198.425C1492.27 233.3 1470 260.525 1443.67 260.525Z" fill="white"/>
<path fill-rule="evenodd" clip-rule="evenodd" d="M1096 0H971L1096 125H971L1096 250H1221L1096 125H1221L1096 0Z" fill="white"/>
</svg>
